<svg width="500" height="500" viewBox="0 0 500 500" fill="none" xmlns="http://www.w3.org/2000/svg">
<path d="M348.487 500L346.509 463.261C336.79 489.847 315.76 498.443 277.601 499.116L348.487 500Z" fill="#1E1E1E"/>
<path d="M346.509 463.261L348.487 500C386.233 494.588 401.399 477.332 420.85 443.931C425.152 436.543 428.171 428.444 429.454 419.991C432.34 400.974 432.354 386.404 430.684 362.967C424.889 335.222 420.469 320.469 402.629 298.625C388.922 277.327 389.507 264.659 395.246 241.65C399.366 228.301 403.545 222.384 414.442 214.637C425.308 208.948 432.524 206.929 441.979 207.366C447.578 207.624 453.063 209.214 458.009 211.853C460.516 213.191 462.628 214.536 464.498 216.018C471.199 221.329 477.701 229.633 486.238 229.155V229.155C493.207 228.764 498.894 223.156 499.88 216.246C500.148 214.374 499.978 212.488 499.26 210.408C497.63 205.684 493.789 202.125 489.939 198.939C479.859 190.597 472.475 186.338 460.216 182.711C442.605 179.999 430.791 180.444 415.918 184.492C405.38 187.36 395.797 193.198 388.475 201.301C381.142 209.417 375.401 217.992 368.667 232.318C357.593 262.503 357.452 278.936 373.097 306.975C387.643 329.686 394.632 349.706 397.215 365.423C400.724 386.784 397.917 400.815 391.916 420.585C390.556 425.065 388.802 429.437 386.434 433.475C376.861 449.801 366.385 458.489 346.509 463.261Z" fill="#1E1E1E"/>
<path fill-rule="evenodd" clip-rule="evenodd" d="M351.923 426.424C351.923 426.424 358.322 245.678 351.923 163.163C339.951 106.963 331.192 76.202 285.968 24.1649C255.682 1.5081 242.103 -0.98194 231.334 34.9704V64.9311C228.02 76.6095 224.942 80.6859 217.06 83.104H142.738C134.694 82.9144 130.322 81.9663 125.019 64.9311V34.9704C125.019 5.99196 104.195 4.08272 77.7677 24.1649C39.4918 66.4867 24.8858 98.526 5.41426 163.654V426.424C12.9512 474.984 25.9783 493.723 78.2599 499.116H277.601C315.76 498.443 336.79 489.847 346.509 463.261C350.06 453.547 350.387 441.432 351.923 426.424ZM195.358 180.884C198.263 175.553 194.404 169.057 188.333 169.057H157.144C150.866 169.057 147.034 175.957 150.353 181.285L166.987 208C170.226 213.202 177.871 212.98 180.803 207.599L195.358 180.884Z" fill="#1E1E1E"/>
</svg>
