<svg width="803" height="759" viewBox="0 0 803 759" fill="none" xmlns="http://www.w3.org/2000/svg">
<path d="M601 568.5H194.5L81.5 720.5L104 758.5H684L702 741L601 568.5Z" fill="white"/>
<path d="M184 489L271.5 466.5L385.5 569L515 488L543.5 496.5L574.5 508.5L603.5 520.5L621 527.5L641 537L662 546.5L689.5 556L734 570L784 593L802 607V659V708V756.5H759H715H656.5L515 593L500.5 624.5L490 647.5L471 673.5L441 695.5L420 708H385.5L366 704L345 695.5L323.5 683L306 664L286.5 640.5L276 614.5L269.5 593L263.5 583L130.5 757H83H21H1V593L30 570L71 540L114 524L130.5 510.5L170.5 499.5L184 489Z" fill="black" stroke="black"/>
<path d="M242.465 254.999L246.751 199.669C247.241 193.345 249.462 187.278 253.172 182.133L253.847 181.196C259.625 173.181 261.401 162.955 258.662 153.462C256.616 146.37 257.071 138.791 259.949 131.995L265.536 118.803C270.744 106.507 279.244 95.8849 290.1 88.1076L290.868 87.557C301.445 79.9796 313.778 75.0002 326.769 74.281C341.514 73.4646 353.103 74.1371 369.5 76.0001C386.135 78.9102 398.22 79.9574 409.61 79.6894C430.954 79.1872 451.671 84.5274 472.159 90.5354C476.184 91.7157 480.081 92.4422 484.12 92.8247C493.145 93.6794 502.169 95.4321 510 100C522.242 107.003 525.326 112.443 527.053 119.669C528.203 124.48 528.145 129.505 527.399 134.395C526.871 137.852 526.376 140.956 525.891 143.812C523.403 158.467 531.973 172.669 537.273 186.557C538.139 188.827 538.625 191.228 538.871 193.645C541.786 222.279 543.532 239.408 548.5 261L554.572 256.446C555.823 255.508 557.346 255 558.911 255C561.712 255 564.261 256.618 565.454 259.153L566.013 260.341C566.972 262.378 567.159 264.693 566.541 266.857L561.5 284.5L554.377 306.707C553.465 309.552 553 312.521 553 315.508C553 318.812 552.419 322.127 551.308 325.238C550.774 326.732 550.357 328.284 550.074 329.845L548.888 336.366C548.631 337.78 548.156 339.146 547.479 340.414C545.587 343.962 542.249 346.515 538.329 347.412L537.943 347.5L533.827 368.423C530.31 386.3 523.319 403.314 513.25 418.5V468V505.5V522.884C513.25 539.485 510.183 555.943 504.204 571.43C500.085 582.1 494.624 592.202 487.954 601.493L470 626.5L445.409 652.913C435.065 664.023 421.492 671.602 406.607 674.579C393.776 677.145 380.489 676.187 368.159 671.806L362.506 669.798C353.554 666.618 345.134 662.101 337.534 656.4L332.214 652.411C324.772 646.829 318.121 640.265 312.442 632.898C305.855 624.352 300.652 614.825 297.023 604.664L287.5 578L282.903 563.127C274.681 536.526 270.5 508.842 270.5 481L273.848 418.5L254.5 374L242.874 347.26C240.629 342.097 238.863 336.74 237.597 331.255C235.873 323.781 233.22 316.552 229.702 309.735L227 304.5L221.638 289.945C220.554 287.005 220 283.896 220 280.763V272.003C220 268.866 221.524 265.924 224.088 264.115C226.829 262.179 230.379 261.806 233.463 263.129L242.485 267C242.162 263.006 242.155 258.993 242.465 254.999Z" fill="#D89C7C"/>
<path d="M340.877 252.977L345.5 255C348.169 256.124 347.662 260.048 344.796 260.458L337.5 261.5L335.269 262.087C330.434 263.359 325.489 264.167 320.5 264.5H312L303 264H293.5H287L283.833 264.198C282.398 264.288 281.724 262.457 282.874 261.595C282.958 261.532 283.048 261.478 283.143 261.435L288.5 259L295.876 254.342C297.29 253.448 298.767 252.659 300.296 251.98C304.716 250.015 309.499 249 314.336 249H320.5H321.863C325.937 249 329.995 249.525 333.935 250.562C336.308 251.186 338.629 251.994 340.877 252.977Z" fill="white"/>
<path d="M449.87 250.42L446.139 252.908C446.047 252.969 445.947 253.019 445.843 253.057C444.479 253.553 444.698 255.548 446.138 255.735L452 256.5L456.181 257.6C459.712 258.53 463.349 259 467 259H481H488.5H498.171C498.389 259 498.607 258.972 498.818 258.916L502.593 257.923C504.075 257.533 504.085 255.432 502.606 255.029C502.535 255.01 502.466 254.985 502.4 254.956L494.5 251.5L489.744 249.122C486.264 247.382 482.567 246.113 478.751 245.35L478.085 245.217C475.701 244.74 473.275 244.5 470.844 244.5C468.288 244.5 465.739 244.765 463.238 245.292L460.907 245.783C458.643 246.259 456.437 246.983 454.33 247.941C452.779 248.646 451.288 249.475 449.87 250.42Z" fill="white"/>
<path d="M306.976 260.976L305.825 259.825C304.657 258.657 304 257.071 304 255.419C304 253.569 304.821 251.815 306.242 250.631L307 250C308.515 249 314.485 248 318 248C322.724 247.385 326.052 248.543 329.494 250.247C329.831 250.413 330.148 250.618 330.441 250.853C331.743 251.894 332.5 253.47 332.5 255.136V256.073C332.5 257.337 332.178 258.58 331.564 259.684L331.446 259.897C330.511 261.581 329.024 262.891 327.235 263.606L326.33 263.968C325.447 264.321 324.522 264.56 323.579 264.678L321 265H318.25C316.102 265 313.972 264.605 311.967 263.833L310.512 263.274C309.186 262.764 307.981 261.981 306.976 260.976Z" fill="#5F7261"/>
<path d="M461.332 255.978L459.951 254.77C459.029 253.963 458.5 252.797 458.5 251.572C458.5 250.558 458.863 249.577 459.523 248.807L460.387 247.799C461.12 246.943 462.03 246.256 463.053 245.783L464.262 245.225C466.702 244.099 469.415 243.702 472.075 244.082L473.363 244.266C474.452 244.422 475.525 244.675 476.569 245.023L480.01 246.17C480.668 246.389 481.297 246.686 481.885 247.053L483.239 247.9C484.366 248.604 485.162 249.73 485.45 251.027C485.796 252.58 485.374 254.204 484.317 255.394L483.67 256.122C482.592 257.335 481.119 258.126 479.512 258.355L476.137 258.838C475.38 258.946 474.616 259 473.851 259H470.838C468.96 259 467.097 258.672 465.333 258.03L463.959 257.53C462.995 257.18 462.104 256.653 461.332 255.978Z" fill="#5F7261"/>
<path d="M356 389L352.376 390.208C350.877 390.708 349.231 390.487 347.916 389.611C347.126 389.084 346.195 390.048 346.75 390.82L353 399.5C356.651 404.147 360.894 408.296 365.622 411.841L366.5 412.5L371.468 415.481C374.811 417.487 378.378 419.093 382.096 420.267L382.384 420.358C384.791 421.118 387.255 421.679 389.754 422.036C391.915 422.345 394.096 422.5 396.279 422.5H400.5H408C412.65 422.5 417.284 421.946 421.803 420.851L424.88 420.105C429.271 419.04 433.491 417.362 437.415 415.12C440.462 413.379 443.31 411.309 445.908 408.947L447.5 407.5C453.479 401.853 458.77 395.519 463.262 388.631L464 387.5L463.494 388.09C461.911 389.937 459.6 391 457.167 391C456.393 391 455.622 390.892 454.878 390.679L449 389L444 387.5L436.5 386C433.176 385.003 429.757 384.355 426.298 384.066L425.5 384H423.799C421.614 384 419.443 384.352 417.371 385.043C416.458 385.347 415.568 385.716 414.708 386.146L412 387.5C409.355 388.492 406.553 389 403.728 389H402C400.022 389 398.066 388.585 396.259 387.782L394.5 387L394.115 386.872C389.403 385.301 384.468 384.5 379.5 384.5C375.187 384.5 370.893 385.085 366.737 386.24L364 387L356 389Z" fill="#C57B6B" fill-opacity="0.7"/>
<path d="M355.667 318.951L355.949 318.025C356.933 314.791 353.246 312.156 350.505 314.136C350.171 314.377 349.882 314.674 349.65 315.015L343.321 324.343C341.443 327.111 339.773 330.014 338.326 333.029L334.698 340.588C334.566 340.862 334.463 341.148 334.389 341.443L333.319 345.724C332.409 349.364 337.076 351.702 339.446 348.793C340.113 347.975 341.113 347.5 342.168 347.5H347.56C349.169 347.5 350.76 347.838 352.23 348.491L355.758 350.059C357.732 350.936 360.037 350.578 361.652 349.143C362.827 348.098 363.5 346.6 363.5 345.027V344.591C363.5 342.357 362.349 340.281 360.455 339.097L359.5 338.5C357.012 336.945 355.5 334.217 355.5 331.283V328.5V320.074C355.5 319.693 355.556 319.315 355.667 318.951Z" fill="#B97550" fill-opacity="0.3"/>
<path d="M447 328.5V325.903C447 321.758 445.589 317.737 443 314.5C440.47 310.231 444.839 305.174 449.407 307.112C450.74 307.678 451.773 308.779 452.251 310.146L455 318L459.868 328.224C459.956 328.407 460.024 328.6 460.071 328.798L462.936 340.78C463.312 342.352 461.135 343.168 460.385 341.736C460.148 341.283 459.68 341 459.169 341H451.5H448.479C446.271 341 445.043 338.446 446.423 336.721C446.796 336.254 447 335.674 447 335.076V328.5Z" fill="#B97550" fill-opacity="0.3"/>
<path d="M397.5 434H406.562C407.834 434 409.085 434.319 410.201 434.928L413.436 436.692C416.413 438.316 416.917 442.385 414.424 444.686C413.508 445.531 412.308 446 411.062 446H403.5H397.5H386.5H381.952C379.769 446 378 444.231 378 442.048C378 440.764 378.624 439.56 379.673 438.819L383.271 436.279C385.372 434.796 387.881 434 390.452 434H397.5Z" fill="#B97550" fill-opacity="0.3"/>
<path d="M375.425 277.716L371.076 290.28C371.026 290.426 370.954 290.564 370.865 290.69C369.764 292.23 367.369 290.941 368.048 289.174L368.5 288L372.5 278L372.836 276.88C373.286 275.379 375.5 275.704 375.5 277.271C375.5 277.423 375.475 277.573 375.425 277.716Z" fill="#B97550" fill-opacity="0.3"/>
<path d="M424 277.5C425.5 280.5 429 288 429.5 290.5L427.479 279.988C427.161 278.337 426.619 276.737 425.867 275.234L424.133 271.767C424.046 271.591 423.92 271.437 423.765 271.317C422.677 270.471 421.197 271.65 421.785 272.896C422.6 274.623 423.426 276.352 424 277.5Z" fill="#B97550" fill-opacity="0.3"/>
<path d="M382.119 351.689L378.896 352.379C377.174 352.749 375.891 354.195 375.732 355.95C375.59 357.506 376.362 359.003 377.712 359.79L379.808 361.013C380.898 361.649 382.183 361.863 383.42 361.616C385.312 361.238 387.257 361.946 388.462 363.452L390.75 366.312C391.899 367.749 393.385 368.879 395.075 369.604L397.729 370.741C398.907 371.246 400.031 371.867 401.084 372.597L403.945 374.577C405.283 375.504 406.872 376 408.5 376C410.128 376 411.717 375.504 413.055 374.577L415.033 373.208C416.578 372.138 417.5 370.379 417.5 368.5V367.408C417.5 365.56 418.298 363.802 419.688 362.585L420.542 361.838C421.16 361.298 421.952 361 422.773 361C423.566 361 424.333 360.722 424.942 360.215L426.665 358.779C426.888 358.593 427.093 358.388 427.279 358.165L427.79 357.552C428.81 356.328 428.929 354.586 428.084 353.234C427.41 352.155 426.227 351.5 424.955 351.5H417.5H413.385C412.068 351.5 411 352.568 411 353.885C411 354.86 410.409 355.74 409.492 356.073C406.628 357.114 402.163 358.5 399.5 358.5C398.344 358.5 396.253 357.128 395.475 356.273L393.091 353.65C392.705 353.226 392.204 352.926 391.648 352.787L388.234 351.934C387.082 351.646 385.9 351.5 384.712 351.5H383.901C383.302 351.5 382.705 351.563 382.119 351.689Z" fill="#B97550" fill-opacity="0.3"/>
<path d="M545 294.5L544.508 274.819C544.503 274.608 544.536 274.398 544.605 274.199C545.255 272.343 548 272.809 548 274.776V284.605C548 284.865 548.056 285.122 548.163 285.359C548.895 286.969 551.261 286.697 551.607 284.963L552.778 279.112C552.923 278.387 553.279 277.721 553.802 277.198L561.5 269.5V271.188C561.5 273.391 561.298 275.59 560.897 277.756L560.056 282.297C559.366 286.023 557.636 289.478 555.066 292.262C553.696 293.746 552.559 295.427 551.691 297.25L548 305L542.75 318.25L544.5 308L545 294.5Z" fill="#B97550" fill-opacity="0.3"/>
<path d="M247 309.5V319.289C247 319.43 247.015 319.57 247.044 319.708C247.541 322.051 244.279 323.17 243.234 321.014L242.661 319.832C242.554 319.612 242.412 319.412 242.239 319.239L240.207 317.207C239.415 316.415 238.438 315.831 237.365 315.51C235.255 314.877 233.586 313.257 232.889 311.167L231 305.5L228 299L225.643 293.611C224.882 291.873 224.254 290.079 223.766 288.246L222.951 285.19C222.651 284.068 222.5 282.912 222.5 281.751V276.695C222.5 275.938 222.836 275.22 223.418 274.735C224.547 273.794 226.236 273.998 227.107 275.181L231.32 280.899C232.098 281.954 232.642 283.163 232.917 284.445L233.514 287.23C233.837 288.739 234 290.278 234 291.822V296.551C234 297.173 234.159 297.785 234.461 298.329C235.539 300.27 238.083 300.813 239.859 299.481L241.731 298.077C242.22 297.71 242.529 297.151 242.58 296.542L242.773 294.218C242.928 292.365 245.5 292.14 245.5 294C245.5 296 247 308 247 309.5Z" fill="#B97550" fill-opacity="0.3"/>
<path d="M273.935 428C273.699 426.935 273.409 425.299 273.215 423.076C272.49 414.77 282.542 411.502 288.333 417.5L310.333 437.5L328.833 455.5L347.333 473L359.403 481.701C365.621 486.184 372.707 489.32 380.208 490.906C389.785 492.932 399.729 492.368 409.016 489.273L411.333 488.5L420.844 486.432C429.745 484.497 438.163 480.782 445.591 475.511C448.415 473.507 451.081 471.288 453.565 468.875L467.333 455.5L485.333 437.5L500.717 421.851C505.704 416.778 514.333 420.309 514.333 427.423C514.333 428.785 513.983 430.124 513.317 431.312L506.252 443.907C503.98 447.957 501.268 451.744 498.167 455.2L485.333 469.5L474.333 483.5L471.763 486.821C465.509 494.898 458.123 502.031 449.833 508L435.368 517.731C426.736 523.538 417.214 527.896 407.177 530.633L402.57 531.89C397.435 533.29 392.136 534 386.814 534C375.085 534 363.615 530.556 353.827 524.096L348.823 520.793C345.501 518.601 342.348 516.163 339.39 513.501L328.833 504L310.333 483.5C302.087 474.264 295.445 463.546 289.096 452.916C283.674 443.838 277.424 434.215 275.185 430.797C274.618 429.931 274.16 429.01 273.935 428Z" fill="#B97550"/>
<path d="M387.699 344.849L388.508 346.263C388.95 347.037 388.391 348 387.5 348H382.158C380.444 348 378.789 347.378 377.5 346.25L377.207 345.994C376.107 345.031 374.694 344.5 373.231 344.5H371.208C370.161 344.5 369.204 343.908 368.736 342.972C368.053 341.607 368.607 339.947 369.972 339.264L371.15 338.675C372.021 338.239 373.019 338.13 373.964 338.366L379.185 339.671C381.369 340.217 383.41 341.228 385.168 342.635L387.186 344.249C387.394 344.415 387.568 344.618 387.699 344.849Z" fill="#AE795C"/>
<path d="M416.647 340.904L415.805 341.866C414.906 342.893 415.635 344.5 417 344.5C421.309 344.5 425.594 343.856 429.713 342.588L430 342.5L434.532 340.852C435.113 340.641 435.5 340.088 435.5 339.47C435.5 338.658 434.842 338 434.03 338H430H426.487C424.512 338 422.555 338.363 420.712 339.072L417.5 340.308C417.172 340.434 416.879 340.638 416.647 340.904Z" fill="#AE795C"/>
<path d="M269.825 233.675L260.5 243L263.613 231.268C265.779 223.103 271.146 216.157 278.5 212C288.108 208.024 298.278 205.574 308.642 204.739L313.253 204.367C320.405 203.79 327.593 203.81 334.742 204.426L353 206H359.989C362.55 206 364.997 207.053 366.758 208.912L366.86 209.018C370.277 212.626 370.201 218.299 366.687 221.813C364.966 223.534 362.633 224.5 360.2 224.5H346.5H323.5H305H291.975C289.007 224.5 286.054 224.922 283.204 225.753C278.15 227.227 273.548 229.952 269.825 233.675Z" fill="#4D3C3D"/>
<path d="M423.994 214.795L423.825 215.263C422.207 219.76 425.538 224.5 430.317 224.5C430.771 224.5 431.224 224.455 431.67 224.366L446 221.5C455.976 219.505 466.124 218.5 476.297 218.5H488H492.622C498.431 218.5 504.131 220.079 509.113 223.068C510.701 224.021 512.369 224.834 514.098 225.499L531 232L527.504 225.643C522.63 216.783 515.04 209.721 505.851 205.499C502.958 204.17 499.937 203.137 496.836 202.415L494.653 201.908C485.03 199.67 475.006 199.814 465.451 202.329C462.488 203.108 459.47 203.663 456.423 203.987L441.584 205.566C438.881 205.853 436.248 206.601 433.797 207.777L427.678 210.715C425.962 211.538 424.639 213.004 423.994 214.795Z" fill="#4D3C3D"/>
<path d="M253.99 340.621C252.915 336.604 247 337.382 247 341.54V341.54C247 341.845 247.039 342.15 247.117 342.445L252 361L256.5 382L258.65 388.212C263.199 401.353 269.363 413.878 277 425.5V425.5V425.5C284.981 436.807 294.038 447.314 304.044 456.876L311.5 464L326.6 478.137C332.193 483.372 338.15 488.205 344.426 492.598L351.114 497.28C357.018 501.412 363.384 504.841 370.085 507.496L373.371 508.798C382.045 512.235 391.292 514 400.622 514V514C409.794 514 418.937 512.274 427.486 508.95V508.95C436.7 505.367 445.165 499.966 452.281 493.104L469.5 476.5L488.358 456.772C497.429 447.282 505.5 436.886 512.444 425.746V425.746C521.441 411.313 528.476 395.746 533.363 379.456L536.5 369L544.891 336.422C544.963 336.142 545 335.853 545 335.564V335.564C545 331.477 539.146 330.795 538.206 334.773L536.5 342L526 374.5L517.221 403.509C515.489 409.232 511.411 413.954 506 416.5V416.5L500.914 419.375C496.727 421.741 493.313 425.266 491.081 429.527V429.527C489.705 432.155 487.871 434.516 485.666 436.501L479 442.5L468.112 451.936C465.386 454.299 463.028 457.055 461.116 460.114V460.114C458.082 464.969 453.941 469.036 449.032 471.981L441.5 476.5L438.627 478.005C433.562 480.658 428.19 482.681 422.632 484.029V484.029C417.23 485.338 411.691 486 406.133 486H394.5H378V486C368.73 486 359.853 482.252 353.388 475.607L345.5 467.5L337.06 457.854C335.705 456.305 334.722 454.467 334.187 452.48L333.287 449.136C332.233 445.221 328.682 442.5 324.627 442.5V442.5C322.912 442.5 321.232 442.008 319.788 441.082L307.304 433.079C304.109 431.031 301.116 428.682 298.368 426.065L292 420L282.163 409.508C278.728 405.843 275.613 401.889 272.854 397.691V397.691C267.98 390.273 264.26 382.159 261.821 373.624L260.5 369L256.5 350L253.99 340.621Z" fill="#4D3C3D"/>
<path d="M238.934 246L243.823 266V229.5L246.825 209.853C248.078 201.65 250.355 193.637 253.601 186L264.847 165.5L258.002 146L258.253 144.715C260.349 133.999 264.427 123.769 270.279 114.55L271.45 112.705C276.775 104.315 283.682 97.0423 291.786 91.2918C299.509 85.8115 308.182 81.8113 317.364 79.4943L320.255 78.7649C333.97 75.304 348.309 75.1339 362.102 78.2686C368.627 79.7515 375.298 80.5 381.99 80.5H406.146L420.446 81.6079C432.385 82.5329 444.177 84.8355 455.587 88.4698L460.123 89.9148C465.524 91.6351 471.061 92.8914 476.676 93.6699L488.149 95.2608C494.044 96.0783 499.71 98.0935 504.797 101.183L507.677 102.931C511.009 104.954 513.878 107.656 516.098 110.861C519.318 115.51 521.043 121.03 521.043 126.684V140.5L515.176 160L521.043 165.5L521.372 166.216C528.936 182.653 534.094 200.093 536.688 218L540.6 242L549 260.5L551.5 241L552.5 191L551.425 179.175C549.812 161.427 546.62 143.858 541.888 126.676L540.6 122L536.134 108.298C530.653 91.4853 523.314 75.3366 514.25 60.152L508.901 51.1889C506.243 46.7362 503.248 42.4936 499.942 38.4983L499.344 37.7753C492.349 29.3209 483.957 22.1268 474.534 16.5051C468.401 12.8464 461.879 9.88273 455.089 7.66888L451.373 6.4571C438.253 2.17921 424.346 0 410.546 0H399.329C387.597 0 375.887 1.00259 364.326 2.99683L354.656 4.66492C345.66 6.21658 336.871 8.78859 328.458 12.3311C314.851 18.0613 302.416 26.2512 291.778 36.4902L291.248 37L283.244 47.2323C275.558 57.0573 268.777 67.5577 262.984 78.6052L261.593 81.259C256.278 91.3955 251.964 102.026 248.712 113L241.378 146L239.684 156.709C237.232 172.212 236 187.884 236 203.581V215L238.934 246Z" fill="#4D3C3D"/>
</svg>
