<svg width="300" height="300" viewBox="0 0 300 300" fill="none" xmlns="http://www.w3.org/2000/svg">
<circle cx="150" cy="150" r="150" fill="#D8D8DF"/>
<mask id="mask0_10:114" style="mask-type:alpha" maskUnits="userSpaceOnUse" x="15" y="15" width="270" height="270">
<circle cx="150" cy="150" r="135" fill="#35B532"/>
</mask>
<g mask="url(#mask0_10:114)">
<path d="M227.564 246.355H70.002L26.2024 305.271L34.9235 320H259.736L266.713 313.217L227.564 246.355Z" fill="black"/>
<path d="M65.9321 215.54L99.8477 206.819L144.035 246.548L194.23 215.152L205.277 218.447L217.293 223.098L228.533 227.75L235.316 230.463L243.069 234.145L251.208 237.827L261.867 241.51L279.116 246.936L298.496 255.851L305.473 261.278V281.433V300.426V319.225H288.806H271.751H249.076L194.23 255.851L188.61 268.061L184.54 276.976L177.175 287.053L165.547 295.581L157.407 300.426H144.035L136.477 298.875L128.337 295.581L120.003 290.736L113.22 283.371L105.662 274.262L101.592 264.185L99.0725 255.851L96.7469 251.975L45.1951 319.419H26.7838H2.75214H-5V255.851L6.24061 246.936L22.1325 235.308L38.7996 229.106L45.1951 223.873L60.6994 219.61L65.9321 215.54Z" fill="black" stroke="black"/>
<path d="M88.7274 125.081L90.3922 103.668C90.5827 101.219 91.4456 98.8691 92.8859 96.8786L93.1529 96.5096C95.3946 93.4117 96.0834 89.4534 95.0199 85.7803C94.2253 83.0358 94.4018 80.1013 95.5195 77.4718L97.6953 72.3536C99.7153 67.6017 103.008 63.4998 107.211 60.5001L107.543 60.2628C111.645 57.335 116.423 55.4125 121.455 55.1337C127.194 54.8157 131.7 55.0757 138.079 55.7978C144.544 56.9247 149.241 57.3299 153.667 57.2257C161.957 57.0305 170.004 59.1001 177.964 61.4247C179.528 61.8815 181.043 62.1626 182.613 62.3104C186.116 62.6403 189.619 63.3189 192.662 65.0872C197.416 67.797 198.615 69.9022 199.286 72.6975C199.734 74.5612 199.711 76.5082 199.421 78.4027C199.217 79.7348 199.025 80.931 198.837 82.0326C197.871 87.7095 201.197 93.2113 203.257 98.5888C203.594 99.4691 203.783 100.399 203.878 101.336C205.01 112.418 205.689 119.047 207.619 127.403L209.977 125.641C210.464 125.278 211.055 125.081 211.662 125.081C212.751 125.081 213.743 125.709 214.208 126.694L214.421 127.144C214.794 127.935 214.867 128.835 214.626 129.675L212.669 136.499L209.902 145.095C209.547 146.196 209.367 147.345 209.367 148.501C209.367 149.78 209.141 151.064 208.71 152.267C208.502 152.845 208.34 153.446 208.23 154.051L207.77 156.571C207.67 157.121 207.485 157.651 207.221 158.143C206.487 159.515 205.193 160.502 203.676 160.848L203.517 160.884L201.92 168.972C200.553 175.898 197.836 182.488 193.924 188.365V207.524V222.039V228.757C193.924 235.189 192.732 241.566 190.408 247.563C188.809 251.689 186.691 255.595 184.103 259.185L177.122 268.873L167.585 279.079C163.556 283.391 158.275 286.33 152.488 287.484C147.507 288.476 142.351 288.105 137.563 286.411L135.367 285.634C131.886 284.401 128.61 282.65 125.652 280.44L123.585 278.895C120.7 276.739 118.12 274.203 115.916 271.354C113.355 268.043 111.331 264.35 109.919 260.41L106.223 250.101L104.436 244.339C101.243 234.047 99.6187 223.332 99.6187 212.556L100.919 188.365L93.4029 171.141L88.8858 160.79C88.0141 158.793 87.3281 156.719 86.8363 154.596C86.1663 151.703 85.1364 148.906 83.7705 146.269L82.7194 144.24L80.6366 138.608C80.2155 137.469 80 136.265 80 135.051V131.673C80 130.452 80.5942 129.308 81.5928 128.606C82.6554 127.858 84.0292 127.714 85.2238 128.225L88.7353 129.726C88.6098 128.18 88.6072 126.627 88.7274 125.081Z" fill="#D89C7C"/>
<path d="M132.6 176.948L131.224 177.414C130.642 177.611 130.001 177.525 129.493 177.18C129.191 176.976 128.832 177.343 129.042 177.64L131.45 181.039C132.85 182.849 134.48 184.469 136.3 185.856L136.625 186.104L138.538 187.27C139.814 188.048 141.177 188.672 142.6 189.129L142.716 189.166C143.637 189.462 144.581 189.68 145.538 189.819C146.367 189.94 147.204 190 148.042 190H149.658H152.533C154.316 190 156.091 189.784 157.822 189.358L158.988 189.071C160.682 188.653 162.307 187.997 163.816 187.121C164.979 186.445 166.065 185.643 167.054 184.73L167.675 184.156C169.967 181.956 171.992 179.493 173.708 176.819L174 176.364L173.796 176.605C173.196 177.317 172.313 177.727 171.382 177.727C171.085 177.727 170.788 177.685 170.502 177.602L168.25 176.948L166.333 176.364L163.458 175.779C162.184 175.391 160.872 175.138 159.545 175.026L159.242 175H158.593C157.753 175 156.919 175.137 156.124 175.407C155.775 175.525 155.435 175.668 155.107 175.835L154.067 176.364C153.053 176.75 151.977 176.948 150.892 176.948H150.233C149.475 176.948 148.726 176.787 148.035 176.475L147.358 176.169L147.206 176.117C145.403 175.506 143.512 175.195 141.608 175.195C139.955 175.195 138.31 175.423 136.719 175.872L135.667 176.169L132.6 176.948Z" fill="#C57B6B" fill-opacity="0.7"/>
<path d="M132.471 149.628L132.581 149.269C132.962 148.015 131.533 146.994 130.471 147.761C130.341 147.855 130.229 147.97 130.139 148.102L127.686 151.718C126.958 152.79 126.311 153.916 125.75 155.084L124.344 158.014C124.293 158.121 124.253 158.232 124.224 158.346L123.809 160.005C123.456 161.416 125.266 162.322 126.184 161.195C126.443 160.878 126.83 160.693 127.239 160.693H129.329C129.953 160.693 130.569 160.824 131.139 161.078L132.507 161.685C133.272 162.025 134.165 161.887 134.791 161.33C135.247 160.925 135.508 160.345 135.508 159.735V159.566C135.508 158.7 135.062 157.895 134.327 157.436L133.957 157.205C132.993 156.602 132.407 155.545 132.407 154.408V153.329V150.063C132.407 149.915 132.429 149.769 132.471 149.628Z" fill="#B97550" fill-opacity="0.3"/>
<path d="M167.873 153.329V152.322C167.873 150.716 167.326 149.157 166.322 147.902C165.342 146.248 167.035 144.288 168.806 145.039C169.322 145.258 169.723 145.685 169.908 146.215L170.974 149.259L172.861 153.222C172.895 153.293 172.921 153.368 172.939 153.444L174.05 158.089C174.196 158.698 173.352 159.014 173.061 158.459C172.969 158.284 172.788 158.174 172.59 158.174H169.617H168.446C167.59 158.174 167.114 157.184 167.649 156.516C167.794 156.335 167.873 156.11 167.873 155.878V153.329Z" fill="#B97550" fill-opacity="0.3"/>
<path d="M148.686 194.221H152.199C152.692 194.221 153.177 194.345 153.609 194.581L154.863 195.265C156.017 195.895 156.212 197.471 155.246 198.363C154.891 198.691 154.426 198.873 153.943 198.873H151.012H148.686H144.423H142.66C141.814 198.873 141.128 198.187 141.128 197.341C141.128 196.843 141.37 196.376 141.776 196.089L143.171 195.105C143.985 194.53 144.958 194.221 145.954 194.221H148.686Z" fill="#B97550" fill-opacity="0.3"/>
<path d="M140.13 133.645L138.444 138.515C138.425 138.571 138.397 138.625 138.362 138.673C137.936 139.27 137.007 138.771 137.271 138.086L137.446 137.631L138.996 133.755L139.126 133.321C139.301 132.739 140.159 132.865 140.159 133.472C140.159 133.531 140.149 133.589 140.13 133.645Z" fill="#B97550" fill-opacity="0.3"/>
<path d="M158.958 133.561C159.539 134.724 160.896 137.631 161.09 138.6L160.306 134.525C160.183 133.886 159.973 133.265 159.681 132.683L159.01 131.339C158.975 131.271 158.927 131.211 158.867 131.164C158.445 130.837 157.871 131.293 158.099 131.776C158.415 132.446 158.735 133.116 158.958 133.561Z" fill="#B97550" fill-opacity="0.3"/>
<path d="M142.725 162.317L141.475 162.585C140.808 162.728 140.311 163.289 140.249 163.969C140.194 164.572 140.493 165.152 141.016 165.457L141.829 165.931C142.251 166.178 142.749 166.261 143.229 166.165C143.962 166.018 144.716 166.293 145.183 166.877L146.07 167.985C146.515 168.542 147.091 168.98 147.746 169.261L148.775 169.702C149.231 169.898 149.667 170.138 150.075 170.421L151.184 171.189C151.703 171.548 152.319 171.74 152.95 171.74C153.581 171.74 154.197 171.548 154.716 171.189L155.482 170.658C156.081 170.243 156.438 169.561 156.438 168.833V168.41C156.438 167.694 156.748 167.012 157.287 166.541L157.617 166.251C157.857 166.042 158.164 165.926 158.482 165.926C158.79 165.926 159.087 165.818 159.323 165.622L159.991 165.065C160.077 164.993 160.157 164.914 160.229 164.827L160.427 164.59C160.822 164.115 160.868 163.44 160.541 162.916C160.279 162.498 159.821 162.244 159.328 162.244H156.438H154.843C154.333 162.244 153.919 162.658 153.919 163.168C153.919 163.546 153.69 163.887 153.334 164.017C152.224 164.42 150.494 164.957 149.461 164.957C149.013 164.957 148.203 164.425 147.901 164.094L146.977 163.077C146.828 162.913 146.633 162.797 146.418 162.743L145.095 162.412C144.648 162.3 144.19 162.244 143.73 162.244H143.415C143.183 162.244 142.951 162.268 142.725 162.317Z" fill="#B97550" fill-opacity="0.3"/>
<path d="M205.858 140.15L205.668 132.522C205.666 132.44 205.678 132.359 205.705 132.281C205.957 131.562 207.021 131.743 207.021 132.505V136.315C207.021 136.416 207.043 136.516 207.084 136.607C207.368 137.231 208.285 137.126 208.419 136.454L208.873 134.186C208.929 133.905 209.067 133.647 209.27 133.444L212.254 130.46V131.114C212.254 131.968 212.176 132.821 212.02 133.66L211.694 135.42C211.427 136.864 210.756 138.204 209.76 139.283C209.229 139.858 208.788 140.51 208.452 141.216L207.021 144.22L204.986 149.356L205.664 145.383L205.858 140.15Z" fill="#B97550" fill-opacity="0.3"/>
<path d="M90.3514 145.964V149.759C90.3514 149.813 90.3571 149.868 90.3685 149.921C90.5611 150.829 89.2968 151.263 88.8917 150.427L88.6695 149.969C88.6282 149.884 88.5729 149.806 88.506 149.739L87.7182 148.952C87.4112 148.645 87.0328 148.419 86.6169 148.294C85.7991 148.048 85.1518 147.42 84.8818 146.61L84.1496 144.414L82.9868 141.895L82.073 139.806C81.7782 139.132 81.535 138.437 81.3455 137.726L81.0297 136.542C80.9137 136.107 80.855 135.659 80.855 135.209V133.249C80.855 132.956 80.9854 132.677 81.211 132.489C81.6486 132.124 82.3029 132.204 82.6408 132.662L84.2737 134.878C84.5752 135.287 84.7861 135.756 84.8926 136.253L85.1239 137.332C85.2493 137.917 85.3125 138.514 85.3125 139.112V140.945C85.3125 141.187 85.3739 141.424 85.4911 141.635C85.909 142.387 86.895 142.597 87.5835 142.081L88.3091 141.537C88.4987 141.394 88.6184 141.178 88.6381 140.942L88.7131 140.041C88.773 139.323 89.7699 139.236 89.7699 139.956C89.7699 140.732 90.3514 145.383 90.3514 145.964Z" fill="#B97550" fill-opacity="0.3"/>
<path d="M100.792 191.896C100.7 191.483 100.588 190.849 100.512 189.987C100.232 186.768 104.128 185.501 106.372 187.826L114.9 195.578L122.071 202.555L129.241 209.338L133.919 212.711C136.33 214.449 139.076 215.664 141.984 216.279C145.696 217.064 149.55 216.845 153.15 215.646L154.048 215.346L157.735 214.545C161.185 213.795 164.447 212.355 167.327 210.311C168.421 209.535 169.455 208.675 170.417 207.739L175.754 202.555L182.731 195.578L188.694 189.512C190.627 187.546 193.972 188.915 193.972 191.672C193.972 192.2 193.836 192.719 193.578 193.179L190.839 198.061C189.958 199.631 188.908 201.099 187.705 202.439L182.731 207.982L178.467 213.408L177.471 214.695C175.047 217.826 172.184 220.591 168.971 222.904L163.364 226.676C160.018 228.927 156.327 230.616 152.437 231.677L150.652 232.164C148.661 232.707 146.607 232.982 144.544 232.982C139.998 232.982 135.552 231.647 131.758 229.143L129.819 227.863C128.531 227.013 127.309 226.069 126.162 225.037L122.071 221.354L114.9 213.408C111.703 209.828 109.129 205.674 106.668 201.554C104.566 198.035 102.144 194.305 101.276 192.98C101.056 192.644 100.879 192.287 100.792 191.896Z" fill="#B97550"/>
<path d="M144.887 159.666L145.201 160.214C145.372 160.514 145.156 160.887 144.81 160.887H142.739C142.075 160.887 141.434 160.646 140.934 160.209L140.821 160.11C140.394 159.736 139.846 159.531 139.28 159.531H138.495C138.09 159.531 137.719 159.301 137.537 158.938C137.273 158.409 137.487 157.766 138.016 157.501L138.473 157.273C138.81 157.104 139.197 157.062 139.564 157.153L141.587 157.659C142.434 157.871 143.225 158.262 143.906 158.808L144.689 159.433C144.769 159.498 144.836 159.577 144.887 159.666Z" fill="#AE795C"/>
<path d="M156.108 158.137L155.781 158.51C155.433 158.908 155.716 159.531 156.245 159.531C157.915 159.531 159.576 159.281 161.172 158.79L161.283 158.755L163.04 158.117C163.265 158.035 163.415 157.821 163.415 157.581C163.415 157.266 163.16 157.011 162.845 157.011H161.283H159.922C159.156 157.011 158.398 157.152 157.683 157.427L156.439 157.906C156.311 157.955 156.198 158.034 156.108 158.137Z" fill="#AE795C"/>
<path d="M99.1986 116.574L95.584 120.189L96.7905 115.641C97.6301 112.476 99.7105 109.784 102.561 108.173C106.285 106.632 110.227 105.682 114.244 105.358L116.031 105.214C118.804 104.99 121.59 104.998 124.361 105.237L131.438 105.847H134.147C135.139 105.847 136.088 106.255 136.77 106.976L136.81 107.017C138.135 108.415 138.105 110.614 136.743 111.976C136.076 112.643 135.172 113.018 134.229 113.018H128.918H120.003H112.833H107.784C106.633 113.018 105.489 113.181 104.384 113.503C102.425 114.075 100.642 115.131 99.1986 116.574Z" fill="#4D3C3D"/>
<path d="M158.955 109.256L158.89 109.438C158.263 111.18 159.554 113.018 161.406 113.018C161.582 113.018 161.758 113 161.931 112.966L167.485 111.855C171.352 111.082 175.285 110.692 179.228 110.692H183.765H185.556C187.808 110.692 190.017 111.304 191.948 112.463C192.564 112.832 193.21 113.147 193.88 113.405L200.432 115.925L199.077 113.461C197.188 110.026 194.246 107.289 190.684 105.653C189.562 105.138 188.392 104.737 187.19 104.458L186.343 104.261C182.613 103.393 178.728 103.449 175.025 104.424C173.876 104.726 172.706 104.941 171.525 105.067L165.774 105.679C164.726 105.79 163.705 106.08 162.755 106.536L160.383 107.674C159.718 107.994 159.205 108.562 158.955 109.256Z" fill="#4D3C3D"/>
<path d="M93.0607 158.027C92.6441 156.47 90.3513 156.772 90.3513 158.383V158.383C90.3513 158.502 90.3666 158.62 90.3967 158.734L92.2894 165.926L94.0336 174.066L94.867 176.474C96.6302 181.567 99.0193 186.422 101.98 190.927V190.927V190.927C105.073 195.309 108.584 199.382 112.462 203.088L115.352 205.85L121.205 211.329C123.373 213.359 125.682 215.232 128.114 216.935L130.706 218.749C132.995 220.351 135.463 221.68 138.06 222.709L139.334 223.214C142.696 224.546 146.28 225.23 149.896 225.23V225.23C153.451 225.23 156.995 224.561 160.309 223.273V223.273C163.88 221.884 167.161 219.79 169.92 217.131L176.594 210.695L183.903 203.048C187.419 199.37 190.548 195.34 193.239 191.022V191.022C196.727 185.428 199.454 179.394 201.348 173.08L202.564 169.027L205.816 156.4C205.844 156.291 205.858 156.179 205.858 156.067V156.067C205.858 154.483 203.589 154.219 203.225 155.76L202.564 158.562L198.494 171.159L195.091 182.403C194.42 184.621 192.839 186.451 190.742 187.438V187.438L188.77 188.553C187.147 189.47 185.824 190.836 184.959 192.488V192.488C184.425 193.506 183.715 194.422 182.86 195.191L180.276 197.516L176.056 201.174C174.999 202.089 174.085 203.158 173.344 204.344V204.344C172.168 206.225 170.563 207.802 168.66 208.943L165.741 210.695L164.627 211.278C162.664 212.307 160.582 213.091 158.427 213.613V213.613C156.334 214.121 154.187 214.377 152.032 214.377H147.523H141.128V214.377C137.535 214.377 134.094 212.924 131.588 210.349L128.531 207.206L125.259 203.467C124.734 202.867 124.353 202.155 124.146 201.384L123.797 200.088C123.388 198.571 122.012 197.516 120.44 197.516V197.516C119.775 197.516 119.124 197.325 118.564 196.967L113.726 193.865C112.487 193.071 111.327 192.16 110.262 191.146L107.794 188.795L103.981 184.728C102.649 183.308 101.442 181.775 100.372 180.148V180.148C98.4832 177.273 97.0413 174.127 96.0962 170.82L95.584 169.027L94.0336 161.663L93.0607 158.027Z" fill="#4D463C"/>
<path d="M87.2247 121.351L89.1198 129.103V114.956L90.2834 107.34C90.7691 104.161 91.6516 101.055 92.91 98.0949L97.2688 90.149L94.6156 82.5906L94.713 82.0928C95.5253 77.9391 97.1062 73.9737 99.3743 70.4005L99.8284 69.6851C101.892 66.4333 104.57 63.6143 107.711 61.3853C110.704 59.2611 114.066 57.7107 117.625 56.8125L118.745 56.5298C124.061 55.1884 129.619 55.1224 134.966 56.3374C137.495 56.9123 140.081 57.2024 142.675 57.2024H152.037L157.58 57.6318C162.208 57.9903 166.778 58.8828 171.201 60.2915L172.959 60.8516C175.053 61.5184 177.199 62.0054 179.375 62.3071L183.822 62.9238C186.107 63.2406 188.303 64.0218 190.275 65.2191L191.391 65.8968C192.683 66.681 193.795 67.7283 194.656 68.9706C195.904 70.7723 196.572 72.9119 196.572 75.1037V80.4588L194.298 88.0171L196.572 90.149L196.7 90.4266C199.632 96.7977 201.631 103.558 202.637 110.498L204.153 119.801L207.409 126.972L208.378 119.413L208.765 100.033L208.519 97.3219C207.78 89.1969 206.319 81.1538 204.153 73.2881L202.422 67.9772C200.297 61.4604 197.452 55.201 193.939 49.3153L191.866 45.8412C190.836 44.1153 189.675 42.4708 188.394 40.9222L188.162 40.642C185.45 37.365 182.198 34.5765 178.545 32.3975C176.168 30.9794 173.64 29.8306 171.008 28.9725L169.568 28.5028C164.482 26.8447 159.092 26 153.743 26H149.395C144.848 26 140.309 26.3886 135.828 27.1616L132.079 27.8082C128.593 28.4096 125.186 29.4065 121.925 30.7796C116.651 33.0007 111.831 36.1751 107.708 40.1439L107.502 40.3415L104.4 44.3076C101.421 48.1158 98.7923 52.1859 96.547 56.4679L96.0077 57.4966C93.9475 61.4256 92.2753 65.5461 91.0149 69.7996L88.1723 82.5906C86.7847 91.3629 86.0876 100.23 86.0876 109.112V109.336L87.2247 121.351Z" fill="#4D3C3D"/>
</g>
</svg>
