<svg width="500" height="500" viewBox="0 0 500 500" fill="none" xmlns="http://www.w3.org/2000/svg">
<path d="M226.26 66.5783C226.26 92.5867 207.011 113.67 183.265 113.67C159.52 113.67 140.27 92.5867 140.27 66.5783C140.27 40.5698 159.52 19.4858 183.265 19.4858C207.011 19.4858 226.26 40.5698 226.26 66.5783Z" fill="#1E1E1E"/>
<path d="M171.8 118.903C158.424 104.38 129.837 110.531 124.028 125.705C109.39 166.669 105.198 188.185 94.8869 227.216C91.0651 240.297 88.7419 250.73 89.632 264.889C90.9171 278.277 93.8487 284.949 102.053 295.761C114.204 312.332 121.306 321.455 135.015 337.098L153.169 355.935C161.305 366.563 164.069 373.125 164.634 386.284C164.435 409.771 164.012 420.69 162.245 432.854C159.857 448.551 158.625 460.585 160.812 475.76C164.87 488.134 168.6 492.227 178.01 496.167C188.52 497.737 198.869 495.963 204.763 478.899C208.411 468.662 209.799 458.856 209.062 437.563L211.451 372.679C211.764 365.639 211.428 361.606 210.495 354.365C207.824 345.836 205.718 341.284 199.985 333.958L157.946 273.261C156.283 270.382 155.913 268.439 156.035 262.797L171.236 201.243C171.593 199.797 171.287 198.267 170.402 197.07L149.347 168.612C148.392 167.042 149.825 164.949 151.736 166.519L188.52 217.797C195.551 229.141 201.419 234.541 206.673 233.495L258.745 234.541C271.924 233.46 277.255 230.412 280.72 217.797C281.391 206.721 279.287 201.053 269.255 198.437C262.217 195.343 251.579 197.914 234.381 198.96C226.26 198.96 222.889 198.617 218.139 194.251C211.74 189.285 207.148 184.051 202.374 173.844C192.82 159.193 183.265 134.6 171.8 118.903Z" fill="#1E1E1E"/>
<path d="M126.416 331.342C119.251 323.493 113.805 317.441 106.83 307.273C97.4559 293.607 89.632 281.633 87.2433 269.075L81.033 302.04L75.778 329.249L71.0008 354.365C67.8099 366.266 65.7748 370.772 61.9242 376.865C46.7587 400.734 39.5608 413.977 27.0506 437.563C23.4144 443.972 22.3078 447.997 21.7957 455.876C21.5672 463.065 24.1843 468.958 27.0506 472.097C28.4838 475.237 34.6941 478.505 40.4268 479.423C44.7263 480.111 51.1137 478.599 58.1024 470.527C62.8634 464.91 65.6851 460.688 71.0008 451.167C84.1528 424.022 92.2151 408.897 111.607 382.621C116.642 374.422 118.255 369.252 120.206 359.598L126.416 331.342Z" fill="#1E1E1E"/>
<path d="M47.1149 259.657L15.5854 246.576C8.37449 242.415 5.30558 239.136 1.7315 231.402C-0.412912 223.011 -0.735784 218.229 1.7315 209.425C4.54523 194.302 12.7193 182.216 18.4519 170.705C19.1655 167.848 20.0124 167.275 22.2735 164.426C25.3121 163.695 27.293 163.687 31.3501 164.426C33.4916 163.898 34.635 162.475 36.6051 158.67C44.4604 138.658 50.0766 128.161 61.9242 110.531C63.4666 107.725 64.5515 105.869 67.1791 104.252C68.6123 102.159 71.5229 100.834 76.2558 101.112C87.9271 102.064 94.4237 103.34 105.874 107.915C109.669 110.288 111.513 111.874 113.04 116.286C114.38 119.291 114.274 121.921 113.04 127.798L79.1221 246.576C77.0969 252.316 75.4213 254.837 71.4786 258.087C62.171 261.968 56.8568 262.635 47.1149 259.657Z" fill="#1E1E1E"/>
<path d="M260.656 194.251H268.299L273.554 148.728C273.673 145.394 273.229 144.146 271.166 143.496C268.215 143.006 267.104 143.488 266.389 146.112L260.656 194.251Z" fill="#1E1E1E"/>
<path d="M263.045 238.204H255.879L226.26 496.69C226.26 498.26 227.693 499.472 229.126 499.83C231.117 500.327 232.036 499.768 233.426 497.737L263.045 238.204Z" fill="#1E1E1E"/>
<path fill-rule="evenodd" clip-rule="evenodd" d="M388.685 0.125622C382.475 -4.58355 296.644 124.658 297.918 126.751C298.662 127.974 306.03 123.487 313.364 119.02C318.59 115.838 323.799 112.666 326.581 111.577C327.767 112.443 328.544 113.846 329.352 115.305C330.497 117.372 331.704 119.552 334.225 120.472C336.382 119.055 338.637 116.783 341.165 114.237C344.235 111.144 347.709 107.645 351.9 104.775C354.989 108.158 357.191 112.222 359.193 115.919C361.836 120.798 364.132 125.037 367.665 126.228C371.581 124.888 375.245 120.665 378.788 116.582C382.161 112.695 385.423 108.935 388.685 107.915C392.216 110.592 394.82 115.13 397.113 119.124C398.852 122.155 400.412 124.874 402.061 126.228C403.847 126.228 406.884 123.258 410.393 119.826C414.394 115.914 419.009 111.401 423.081 110.008C426.784 111.36 429.594 115.646 432.434 119.979C435.09 124.03 437.772 128.121 441.234 129.891C446.489 126.751 454.133 120.472 456.999 117.333C459.776 117.333 467.426 120.996 475.591 124.905C485.683 129.736 496.561 134.945 499.994 134.077C500.949 129.891 392.984 -3.01383 388.685 0.125622ZM354.289 48.7874L382.475 7.97443C383.995 5.82783 385.87 2.62181 388.685 2.21868C390.724 3.10436 391.517 4.34217 392.507 5.88143L429.291 48.7879L414.482 43.0321L413.526 54.5436L403.972 41.9856L399.195 62.9156L391.074 48.7879L382.475 60.8221L380.086 46.6949L363.843 65.0081L367.665 43.0321L354.289 48.7874Z" fill="#1E1E1E"/>
<path fill-rule="evenodd" clip-rule="evenodd" d="M320.299 16.869C314.089 12.1599 249.278 106.868 250.552 108.961C251.296 110.183 258.663 105.696 265.997 101.23C271.223 98.0474 269.744 98.0148 272.527 96.9262C273.713 97.792 274.49 99.195 275.297 100.654C276.442 102.721 276.288 104.255 278.809 105.175C280.967 103.758 282.897 104.478 285.425 101.931C288.496 98.8383 286.083 98.2261 290.275 95.3565C293.364 98.7398 293.582 97.5714 295.584 101.268C298.227 106.147 298.612 110.386 302.146 111.577C306.061 110.237 306.859 106.014 310.402 101.931C313.775 98.0439 317.037 94.2843 320.299 93.2635C323.83 95.9409 319.746 100.479 322.038 104.473C323.778 107.504 326.713 99.9136 328.362 101.268C330.148 101.268 331.81 108.607 335.319 105.175C339.32 101.263 337.247 96.7503 341.319 95.3565C345.022 96.7086 345.586 92.0707 348.427 96.4034C351.082 100.454 353.563 93.5867 357.026 95.3565C362.28 92.217 362.816 105.821 365.682 102.682C368.46 102.682 366.595 96.7447 374.759 100.654C384.851 105.486 371.326 87.8537 374.759 86.9859C375.714 82.7999 324.598 13.7296 320.299 16.869ZM285.425 60.8221L314.089 24.7179C315.609 22.5713 317.484 19.3652 320.299 18.9621C322.338 19.8478 323.131 21.0856 324.121 22.6249L345.212 46.6949L334.631 45.1246L333.675 56.6361L324.121 44.0781V65.0081L318.866 50.8804L312.655 67.1011V48.7874L303.101 62.9151L306.923 46.1711L285.425 60.8221Z" fill="#1E1E1E"/>
</svg>
