<svg width="500" height="500" viewBox="0 0 500 500" fill="none" xmlns="http://www.w3.org/2000/svg">
<path fill-rule="evenodd" clip-rule="evenodd" d="M500 80C500 35.8172 464.183 0 420 0H80C35.8172 0 0 35.8172 0 80V426C0 466.869 33.1309 500 74 500V500V282C75.8113 235.601 84.1167 209.77 111 164C137.929 128.571 157.973 112.089 198.93 91.9408C202.948 89.9643 207.179 88.3664 211.497 87.1812C260.593 73.7052 286.474 73.0982 325 85C367.801 103.34 386.142 120.701 409 164C422.764 198.055 423.863 219.153 418.431 253.467C417.533 259.14 415.917 264.698 413.666 269.982C398.948 304.526 387.721 321.096 365.5 341C335.383 361.263 316.375 365.953 286.559 370.242C280.547 371.106 274.423 371.308 268.417 370.399C235.381 365.4 214.697 350.638 200 324C185.353 291.644 186.334 273.849 199.5 242.5C215.239 214.081 230.954 203.017 263 195C288 190.5 301.663 201.5 305 217.5C307.514 229.554 302.693 240.099 295.396 246.463C289.684 251.446 281.587 251.585 274.111 252.839C263.583 254.605 255.977 259.37 251.332 269.117C247.63 276.885 247.517 286.04 250.347 294.167C253.72 303.85 259.129 308.072 266.781 310.549C273.726 312.797 281.209 312.75 288.42 311.622C313.588 307.685 325.568 299.619 341 282C357.443 260.883 362.361 246.362 362.947 221.388C363.07 216.145 362.505 210.89 361.29 205.787C354.729 178.241 346.804 167.921 331 155.5C303.47 134.485 284.567 132.904 248.5 137C216.154 145.396 203.226 153.227 184 169.5C164.486 183.655 156.513 194.384 146.5 217.5C136.718 238.768 134.372 250.56 132.5 271.5V500H420C464.183 500 500 464.183 500 420V80Z" fill="#1E1E1E"/>
</svg>
