<svg width="500" height="727" viewBox="0 0 500 727" fill="none" xmlns="http://www.w3.org/2000/svg">
<path d="M257.361 45.75L464.06 403.763C467.332 409.429 463.242 416.513 456.699 416.513H43.3013C36.758 416.513 32.6684 409.429 35.9401 403.763L242.639 45.75C245.91 40.0833 254.09 40.0833 257.361 45.75Z" fill="#FFBB00" stroke="#FF0000" stroke-width="33"/>
<path d="M344.901 355.644H366.891C373.944 356.541 379.747 359.869 381.1 363.389C386.513 371.838 385.836 385.567 381.1 392.255C379.106 395.072 375.349 398.592 369.936 400H344.901V355.644Z" fill="black"/>
<path d="M219.729 164.141C219.729 196.803 194.284 223.282 162.894 223.282C150.522 223.282 139.072 219.168 129.741 212.182C115.399 201.447 106.06 183.929 106.06 164.141C106.06 131.478 131.505 105 162.894 105C194.284 105 219.729 131.478 219.729 164.141Z" fill="black"/>
<path fill-rule="evenodd" clip-rule="evenodd" d="M143.273 233.49C119.409 235.874 110.527 244.77 102 272.918V400H219.729V355.644C218.714 350.012 226.834 348.252 229.54 351.42L244.087 374.654C248.823 383.103 261.002 400 276.564 400H333.061V355.644H305.658V317.625H381.776C390.12 316.131 393.528 312.951 397 302.488V164.141C395.101 154.097 392.337 150.091 381.776 148.3H226.157C228.525 153.58 228.663 160.63 228.525 169.421L226.157 179.63C221.725 201.129 214.283 209.587 199.093 223.282C220.356 226.544 231.011 231.879 244.087 257.78L276.564 317.625H266.077L235.968 264.469C225.222 244.003 216.716 236.21 194.018 233.49H143.273ZM276.564 317.625H293.479V342.267L276.564 317.625ZM264.241 236.235C264.917 233.771 288.599 215.465 291.305 221.802C296.041 225.674 279.126 236.235 279.126 236.235C279.126 236.235 294.35 246.796 291.305 251.02C288.26 257.709 264.579 238.347 264.241 236.235ZM348.14 236.235C347.463 233.771 323.782 215.465 321.076 221.802C316.339 225.674 333.255 236.235 333.255 236.235C333.255 236.235 318.031 246.796 321.076 251.02C324.12 257.709 347.802 238.347 348.14 236.235ZM305.852 213.705L296.718 253.484C294.011 261.933 303.484 264.749 305.852 258.413L316.339 214.761C317.016 209.129 305.852 207.721 305.852 213.705Z" fill="black"/>
<rect x="5" y="482" width="490" height="240" rx="5" fill="#FFBB00" stroke="black" stroke-width="10"/>
<path d="M155.812 530.14V591H140.767V577.315C140.767 568.532 141.022 557.652 141.532 544.675C139.378 553.798 137.197 561.845 134.987 568.815L127.932 591H115.777L108.637 569.41C106.54 563.12 104.33 554.875 102.007 544.675C102.517 556.235 102.772 566.435 102.772 575.275V591H87.7267V530.14H110.507L117.052 551.305C118.978 557.482 120.622 564.537 121.982 572.47C123.852 563.403 125.58 556.235 127.167 550.965L133.372 530.14H155.812ZM199.896 530.14L222.676 591H206.186L202.276 579.865H181.196L177.286 591H160.966L183.746 530.14H199.896ZM198.621 568.475L195.731 560.23C194.031 555.243 192.728 550.682 191.821 546.545C190.688 550.965 189.299 555.583 187.656 560.4L184.851 568.475H198.621ZM280.712 530.14V591H265.242L248.837 563.375L245.352 557.17C244.729 556.15 243.879 554.422 242.802 551.985C243.199 556.462 243.397 561.618 243.397 567.455V591H227.927V530.14H243.992L259.122 555.895C262.069 560.995 264.335 565.245 265.922 568.645C265.469 562.695 265.242 557.453 265.242 552.92V530.14H280.712ZM340.345 530.14L363.125 591H346.635L342.725 579.865H321.645L317.735 591H301.415L324.195 530.14H340.345ZM339.07 568.475L336.18 560.23C334.48 555.243 333.177 550.682 332.27 546.545C331.137 550.965 329.749 555.583 328.105 560.4L325.3 568.475H339.07ZM416.316 530.14V543.825H398.126V591H382.316V543.825H364.211V530.14H416.316ZM195.066 625.14L178.321 686H162.426L157.666 665.515C156.816 662.058 155.966 657.582 155.116 652.085C154.549 648.628 154.068 645.88 153.671 643.84C153.388 645.597 152.963 648.288 152.396 651.915C151.773 656.222 150.951 660.67 149.931 665.26L145.341 686H129.191L112.616 625.14H128.596L133.186 644.775C134.999 652.765 136.416 661.038 137.436 669.595C138.569 660.812 139.986 652.623 141.686 645.03L146.276 625.14H161.406L165.656 643.84C167.639 652.68 169.141 661.265 170.161 669.595C171.351 660.018 172.938 651.122 174.921 642.905L179.086 625.14H195.066ZM228.035 623.61C237.498 623.61 245.035 626.953 250.645 633.64C255.461 639.477 257.87 646.787 257.87 655.57C257.87 665.713 254.753 673.76 248.52 679.71C243.08 684.923 236.251 687.53 228.035 687.53C218.401 687.53 210.751 684.187 205.085 677.5C200.211 671.72 197.775 664.41 197.775 655.57C197.775 645.427 200.778 637.493 206.785 631.77C212.565 626.33 219.648 623.61 228.035 623.61ZM227.95 636.7C223.36 636.7 219.79 638.627 217.24 642.48C215.03 645.767 213.925 650.102 213.925 655.485C213.925 661.775 215.341 666.62 218.175 670.02C220.668 672.967 223.955 674.44 228.035 674.44C232.341 674.44 235.713 672.768 238.15 669.425C240.586 666.025 241.805 661.293 241.805 655.23C241.805 649.053 240.388 644.322 237.555 641.035C235.118 638.145 231.916 636.7 227.95 636.7ZM266.314 625.14H296.319C302.496 625.14 307.199 626.103 310.429 628.03C315.926 631.26 318.674 636.162 318.674 642.735C318.674 646.135 317.824 649.167 316.124 651.83C314.424 654.493 312.129 656.42 309.239 657.61C311.789 658.29 313.829 659.82 315.359 662.2C316.379 663.787 317.059 665.43 317.399 667.13C317.796 668.773 318.249 672.542 318.759 678.435C319.156 682.175 319.666 684.498 320.289 685.405L320.799 686H304.564C304.054 684.81 303.459 680.56 302.779 673.25C302.326 669.567 301.306 667.017 299.719 665.6C298.132 664.127 295.554 663.39 291.984 663.39H282.209V686H266.314V625.14ZM282.209 637.635V652H293.429C299.832 652 303.034 649.563 303.034 644.69C303.034 639.987 299.776 637.635 293.259 637.635H282.209ZM385.911 625.14L363.301 649.025L388.716 686H368.996L352.591 660.5L346.046 667.215V686H330.151V625.14H346.046V640.355V644.86V649.025C348.256 645.965 350.126 643.557 351.656 641.8L366.276 625.14H385.911Z" fill="black"/>
</svg>
