<svg width="500" height="500" viewBox="0 0 500 500" fill="none" xmlns="http://www.w3.org/2000/svg">
<path fill-rule="evenodd" clip-rule="evenodd" d="M250 500C388.071 500 500 388.071 500 250C500 111.929 388.071 0 250 0C111.929 0 0 111.929 0 250C0 388.071 111.929 500 250 500ZM74.3989 106.304C74.1499 106.027 73.9724 105.693 73.8821 105.332L73.7191 104.68C73.3981 103.396 74.4987 102.204 75.8043 102.422C75.9214 102.441 76.0364 102.472 76.1475 102.514L80.1243 104.005C82.5858 104.928 84.9629 106.062 87.2288 107.395L92.9497 110.76C97.9703 113.714 102.773 117.022 107.322 120.661L110.333 123.07C116.835 128.272 122.959 133.928 128.66 139.997L135.294 147.059L144.608 157.353L159.314 175L167.157 186.765C173.354 196.224 178.711 206.207 183.165 216.601L186.765 225L202.941 267.157L209.314 289.706L218.137 321.569L225.98 352.451L229.902 366.176L231.863 373.039L234.804 381.373L235.369 383.917C235.706 385.432 237.862 385.44 238.211 383.928C238.227 383.859 238.248 383.79 238.275 383.723L243.627 370.098L246.569 360.784L250.49 349.51L255.392 333.824L260.784 318.137L265.196 304.412L271.078 287.745L275.49 276.961L279.902 264.216L285.784 249.51L292.157 235.784L297.549 224.02L303.431 212.255L310.294 200.49L318.627 187.745L328.922 173.039L338.725 161.275L348.245 149.851C348.431 149.627 348.555 149.359 348.602 149.072C348.798 147.899 347.716 146.916 346.567 147.223L342.023 148.434C341.786 148.498 341.554 148.579 341.33 148.679L337.598 150.338C334.435 151.744 331.408 153.438 328.555 155.399L325 157.843L313.235 168.137L303.431 178.922L296.569 187.745L288.725 199.51L282.994 211.45C282.894 211.659 282.77 211.856 282.625 212.037L281.07 213.981C280.169 215.107 278.373 214.746 277.977 213.36C277.953 213.277 277.935 213.192 277.924 213.107L276.961 205.882V194.608L277.941 186.765L278.464 184.15C279.421 179.364 280.726 174.653 282.368 170.056C283.99 165.515 285.936 161.096 288.193 156.834L288.899 155.5C292.044 149.56 295.762 143.942 300 138.725L308.333 129.902L318.137 122.059L320.887 120.34C324.277 118.221 327.835 116.384 331.524 114.847C335.663 113.123 339.951 111.782 344.335 110.843L378.922 103.431L391.667 100.49L412.745 95.5882L422.896 93.1519C424.16 92.8486 425.479 93.3656 426.2 94.447C426.685 95.1738 426.84 96.0714 426.628 96.9189L425 103.431L422.059 113.235L421.078 117.157L420.098 124.51L419.118 133.824L418.137 143.627L417.157 153.431L416.176 160.294L414.216 170.098L412.861 174.163C411.805 177.329 410.459 180.389 408.839 183.306C407.198 186.259 405.284 189.051 403.122 191.646L401.282 193.854C398.146 197.617 394.688 201.101 390.948 204.265L389.588 205.416C385.75 208.664 381.683 211.632 377.42 214.297L375.98 215.196L375.308 215.533C367.922 219.225 360.284 222.389 352.451 225L339.706 227.941L327.98 230.454C326.652 230.738 325.366 231.19 324.151 231.797C321.501 233.122 319.267 235.153 317.696 237.667L312.614 245.798C311.07 248.268 309.745 250.867 308.652 253.567L293.627 290.686L280.882 331.863L275 354.412L269.118 380.882L264.216 409.314L260.294 435.294L257.353 452.941L255.497 459.993C255.105 461.484 254.404 462.877 253.441 464.082C251.849 466.07 249.62 467.448 247.13 467.982L245.69 468.291C244.645 468.515 243.579 468.627 242.51 468.627H230.72C228.588 468.627 226.505 467.996 224.731 466.814C222.684 465.45 221.165 463.427 220.424 461.082L218.627 455.392L210.294 415.686L197.059 360.784L183.333 309.804L176.471 287.745L167.157 259.314L152.941 224.02L140.686 199.02L131.863 182.843L121.078 166.176L104.412 142.647L92.1569 127.451L85.2941 118.627L78.4314 110.784L74.3989 106.304Z" fill="#1E1E1E"/>
</svg>
