<svg width="500" height="500" viewBox="0 0 500 500" fill="none" xmlns="http://www.w3.org/2000/svg">
<path d="M181.506 172.41C181.506 205.626 165.01 234.662 140.422 250.4C128.018 258.339 113.555 262.894 98.1115 262.894C82.6679 262.894 68.2048 258.339 55.8009 250.4C31.2127 234.662 14.7167 205.626 14.7167 172.41C14.7167 122.437 52.0539 81.9258 98.1115 81.9258C144.169 81.9258 181.506 122.437 181.506 172.41Z" fill="#1E1E1E"/>
<path fill-rule="evenodd" clip-rule="evenodd" d="M481.973 18.7196C397.965 -7.22811 345.843 -5.23166 263.062 18.7196C237.581 102.122 239.933 160.197 263.062 243.599C341.465 264.182 396.721 268.465 481.973 243.599C504.675 164.591 507.307 102.627 481.973 18.7196ZM371.597 109.113C360.56 111.774 355.041 117.097 355.041 128.408C356.25 140.321 359.099 145.406 371.597 149.033C383.353 146.359 390.607 140.383 390.607 128.408C390.607 116.432 385.701 111.109 371.597 109.113Z" fill="#1E1E1E"/>
<path fill-rule="evenodd" clip-rule="evenodd" d="M481.973 262.894C396.904 229.907 341.933 231.705 263.062 262.894C240.782 347.285 241.446 407.881 263.062 487.773C346.456 503.741 400.418 504.407 481.973 487.773C501.346 405.647 501.637 345.02 481.973 262.894ZM319.476 292.743C308.438 295.404 302.919 300.726 302.919 312.037C304.129 323.951 306.977 329.035 319.476 332.662C331.231 329.989 338.485 324.013 338.485 312.037C338.485 300.061 333.579 294.739 319.476 292.743ZM302.919 429.225C302.919 417.914 308.438 412.592 319.476 409.93C333.579 411.926 338.485 417.249 338.485 429.225C338.485 441.201 331.231 447.177 319.476 449.85C306.977 446.223 304.129 441.138 302.919 429.225ZM371.597 351.291C360.56 353.952 355.041 359.275 355.041 370.586C356.25 382.499 359.099 387.583 371.597 391.211C383.353 388.537 390.607 382.561 390.607 370.586C390.607 358.61 385.701 353.287 371.597 351.291ZM409.002 312.037C409.002 300.726 414.521 295.404 425.559 292.743C439.662 294.739 444.568 300.061 444.568 312.037C444.568 324.013 437.315 329.989 425.559 332.662C413.06 329.035 410.212 323.951 409.002 312.037ZM425.559 409.93C414.521 412.592 409.002 417.914 409.002 429.225C410.212 441.138 413.06 446.223 425.559 449.85C437.315 447.177 444.568 441.201 444.568 429.225C444.568 417.249 439.662 411.926 425.559 409.93Z" fill="#1E1E1E"/>
<path fill-rule="evenodd" clip-rule="evenodd" d="M55.8009 250.4C68.2048 258.339 82.6679 262.894 98.1115 262.894C113.555 262.894 128.018 258.339 140.422 250.4C140.422 276.718 149.518 316.999 194.845 427.365C195.341 428.572 195.61 429.896 195.61 431.202V487.088C195.61 492.611 191.133 497.088 185.61 497.088H10C4.47715 497.088 0 492.611 0 487.088V431.375C0 429.958 0.320264 428.515 0.901659 427.223C55.8009 305.165 55.8009 276.722 55.8009 250.4ZM23.1172 436.453C19.5623 436.453 17.7805 432.156 20.2923 429.64V429.64C21.0411 428.89 22.0574 428.469 23.1172 428.469H172.908C174.083 428.469 175.199 428.987 175.957 429.884V429.884C178.15 432.479 176.305 436.453 172.908 436.453H23.1172Z" fill="#1E1E1E"/>
</svg>
